<svg xmlns="http://www.w3.org/2000/svg" version="1.1" xmlns:xlink="http://www.w3.org/1999/xlink" xmlns:svgjs="http://svgjs.com/svgjs" width="100%" height="100%" viewBox="-1.1 -1.1 48.2 12.2"><g transform="matrix(1,0,0,1,0,0)"><rect width="11.8" height="0.5" x="-0.9" y="8" class="base" style="fill: none; stroke: none; stroke-width: 1px; stroke-linecap: butt;"></rect><g transform="matrix(1,0,0,1,4,6)"><polygon points="0,0 2,0 2,2 0,2" class="O" style="fill: rgb(223, 223, 32); stroke: rgb(0, 0, 0); stroke-width: 0.2px; stroke-linecap: butt;"></polygon><line x1="1" y1="0" x2="1" y2="2" style="fill: rgb(0, 0, 0); stroke: rgb(0, 0, 0); stroke-width: 0.075px; stroke-linecap: butt;"></line><line x1="0" y1="1" x2="2" y2="1" style="fill: rgb(0, 0, 0); stroke: rgb(0, 0, 0); stroke-width: 0.075px; stroke-linecap: butt;"></line></g><g transform="matrix(6.123233995736766e-17,1,-1,6.123233995736766e-17,6,3)"><polygon points="0,1 2,1 2,0 3,0 3,2 0,2" class="L" style="fill: rgb(223, 159, 32); stroke: rgb(0, 0, 0); stroke-width: 0.2px; stroke-linecap: butt;"></polygon><line x1="1" y1="1" x2="1" y2="2" style="fill: rgb(0, 0, 0); stroke: rgb(0, 0, 0); stroke-width: 0.075px; stroke-linecap: butt;"></line><line x1="2" y1="1" x2="2" y2="2" style="fill: rgb(0, 0, 0); stroke: rgb(0, 0, 0); stroke-width: 0.075px; stroke-linecap: butt;"></line><line x1="2" y1="1" x2="3" y2="1" style="fill: rgb(0, 0, 0); stroke: rgb(0, 0, 0); stroke-width: 0.075px; stroke-linecap: butt;"></line></g><g transform="matrix(6.123233995736766e-17,1,-1,6.123233995736766e-17,6,1)"><polygon points="4,1 4,0 0,0 0,1" class="I" style="fill: rgb(32, 223, 223); stroke: rgb(0, 0, 0); stroke-width: 0.2px; stroke-linecap: butt;"></polygon><line x1="1" y1="0" x2="1" y2="1" style="fill: rgb(0, 0, 0); stroke: rgb(0, 0, 0); stroke-width: 0.075px; stroke-linecap: butt;"></line><line x1="2" y1="0" x2="2" y2="1" style="fill: rgb(0, 0, 0); stroke: rgb(0, 0, 0); stroke-width: 0.075px; stroke-linecap: butt;"></line><line x1="3" y1="0" x2="3" y2="1" style="fill: rgb(0, 0, 0); stroke: rgb(0, 0, 0); stroke-width: 0.075px; stroke-linecap: butt;"></line></g><g transform="matrix(1,0,0,1,5,0)"><polygon points="0,0 2,0 2,1 3,1 3,2 1,2 1,1 0,1" class="Z" style="fill: rgb(223, 32, 32); stroke: rgb(0, 0, 0); stroke-width: 0.2px; stroke-linecap: butt;"></polygon><line x1="1" y1="0" x2="1" y2="1" style="fill: rgb(0, 0, 0); stroke: rgb(0, 0, 0); stroke-width: 0.075px; stroke-linecap: butt;"></line><line x1="2" y1="1" x2="1" y2="1" style="fill: rgb(0, 0, 0); stroke: rgb(0, 0, 0); stroke-width: 0.075px; stroke-linecap: butt;"></line><line x1="2" y1="1" x2="2" y2="2" style="fill: rgb(0, 0, 0); stroke: rgb(0, 0, 0); stroke-width: 0.075px; stroke-linecap: butt;"></line></g><g transform="matrix(-1,1.2246467991473532e-16,-1.2246467991473532e-16,-1,10,2)"><polygon points="1,0 2,0 2,1 3,1 3,2 0,2 0,1 1,1" class="T" style="fill: rgb(159, 32, 223); stroke: rgb(0, 0, 0); stroke-width: 0.2px; stroke-linecap: butt;"></polygon><line x1="1" y1="2" x2="1" y2="1" style="fill: rgb(0, 0, 0); stroke: rgb(0, 0, 0); stroke-width: 0.075px; stroke-linecap: butt;"></line><line x1="1" y1="1" x2="2" y2="1" style="fill: rgb(0, 0, 0); stroke: rgb(0, 0, 0); stroke-width: 0.075px; stroke-linecap: butt;"></line><line x1="2" y1="1" x2="2" y2="2" style="fill: rgb(0, 0, 0); stroke: rgb(0, 0, 0); stroke-width: 0.075px; stroke-linecap: butt;"></line></g><g transform="matrix(-1,1.2246467991473532e-16,-1.2246467991473532e-16,-1,5,3)"><polygon points="0,0 1,0 1,1 3,1 3,2 0,2" class="J" style="fill: rgb(32, 32, 223); stroke: rgb(0, 0, 0); stroke-width: 0.2px; stroke-linecap: butt;"></polygon><line x1="0" y1="1" x2="1" y2="1" style="fill: rgb(0, 0, 0); stroke: rgb(0, 0, 0); stroke-width: 0.075px; stroke-linecap: butt;"></line><line x1="1" y1="1" x2="1" y2="2" style="fill: rgb(0, 0, 0); stroke: rgb(0, 0, 0); stroke-width: 0.075px; stroke-linecap: butt;"></line><line x1="2" y1="1" x2="2" y2="2" style="fill: rgb(0, 0, 0); stroke: rgb(0, 0, 0); stroke-width: 0.075px; stroke-linecap: butt;"></line></g><g transform="matrix(1,0,0,1,0,0)"><polygon points="1,0 3,0 3,1 2,1 2,2 0,2 0,1 1,1" class="S" style="fill: rgb(32, 223, 32); stroke: rgb(0, 0, 0); stroke-width: 0.2px; stroke-linecap: butt;"></polygon><line x1="2" y1="0" x2="2" y2="1" style="fill: rgb(0, 0, 0); stroke: rgb(0, 0, 0); stroke-width: 0.075px; stroke-linecap: butt;"></line><line x1="2" y1="1" x2="1" y2="1" style="fill: rgb(0, 0, 0); stroke: rgb(0, 0, 0); stroke-width: 0.075px; stroke-linecap: butt;"></line><line x1="1" y1="1" x2="1" y2="2" style="fill: rgb(0, 0, 0); stroke: rgb(0, 0, 0); stroke-width: 0.075px; stroke-linecap: butt;"></line></g></g><g transform="matrix(1,0,0,1,11,0)"><rect width="6.8" height="0.5" x="-0.9" y="8" class="base" style="fill: none; stroke: none; stroke-width: 1px; stroke-linecap: butt;"></rect><g transform="matrix(1,0,0,1,1,7)"><polygon points="4,1 4,0 0,0 0,1" class="I" style="fill: rgb(32, 223, 223); stroke: rgb(0, 0, 0); stroke-width: 0.2px; stroke-linecap: butt;"></polygon><line x1="1" y1="0" x2="1" y2="1" style="fill: rgb(0, 0, 0); stroke: rgb(0, 0, 0); stroke-width: 0.075px; stroke-linecap: butt;"></line><line x1="2" y1="0" x2="2" y2="1" style="fill: rgb(0, 0, 0); stroke: rgb(0, 0, 0); stroke-width: 0.075px; stroke-linecap: butt;"></line><line x1="3" y1="0" x2="3" y2="1" style="fill: rgb(0, 0, 0); stroke: rgb(0, 0, 0); stroke-width: 0.075px; stroke-linecap: butt;"></line></g><g transform="matrix(6.123233995736766e-17,1,-1,6.123233995736766e-17,2,5)"><polygon points="1,0 2,0 2,1 3,1 3,2 0,2 0,1 1,1" class="T" style="fill: rgb(159, 32, 223); stroke: rgb(0, 0, 0); stroke-width: 0.2px; stroke-linecap: butt;"></polygon><line x1="1" y1="2" x2="1" y2="1" style="fill: rgb(0, 0, 0); stroke: rgb(0, 0, 0); stroke-width: 0.075px; stroke-linecap: butt;"></line><line x1="1" y1="1" x2="2" y2="1" style="fill: rgb(0, 0, 0); stroke: rgb(0, 0, 0); stroke-width: 0.075px; stroke-linecap: butt;"></line><line x1="2" y1="1" x2="2" y2="2" style="fill: rgb(0, 0, 0); stroke: rgb(0, 0, 0); stroke-width: 0.075px; stroke-linecap: butt;"></line></g><g transform="matrix(6.123233995736766e-17,1,-1,6.123233995736766e-17,3,4)"><polygon points="1,0 3,0 3,1 2,1 2,2 0,2 0,1 1,1" class="S" style="fill: rgb(32, 223, 32); stroke: rgb(0, 0, 0); stroke-width: 0.2px; stroke-linecap: butt;"></polygon><line x1="2" y1="0" x2="2" y2="1" style="fill: rgb(0, 0, 0); stroke: rgb(0, 0, 0); stroke-width: 0.075px; stroke-linecap: butt;"></line><line x1="2" y1="1" x2="1" y2="1" style="fill: rgb(0, 0, 0); stroke: rgb(0, 0, 0); stroke-width: 0.075px; stroke-linecap: butt;"></line><line x1="1" y1="1" x2="1" y2="2" style="fill: rgb(0, 0, 0); stroke: rgb(0, 0, 0); stroke-width: 0.075px; stroke-linecap: butt;"></line></g><g transform="matrix(-1,1.2246467991473532e-16,-1.2246467991473532e-16,-1,5,5)"><polygon points="0,1 2,1 2,0 3,0 3,2 0,2" class="L" style="fill: rgb(223, 159, 32); stroke: rgb(0, 0, 0); stroke-width: 0.2px; stroke-linecap: butt;"></polygon><line x1="1" y1="1" x2="1" y2="2" style="fill: rgb(0, 0, 0); stroke: rgb(0, 0, 0); stroke-width: 0.075px; stroke-linecap: butt;"></line><line x1="2" y1="1" x2="2" y2="2" style="fill: rgb(0, 0, 0); stroke: rgb(0, 0, 0); stroke-width: 0.075px; stroke-linecap: butt;"></line><line x1="2" y1="1" x2="3" y2="1" style="fill: rgb(0, 0, 0); stroke: rgb(0, 0, 0); stroke-width: 0.075px; stroke-linecap: butt;"></line></g><g transform="matrix(6.123233995736766e-17,1,-1,6.123233995736766e-17,3,1)"><polygon points="0,0 2,0 2,1 3,1 3,2 1,2 1,1 0,1" class="Z" style="fill: rgb(223, 32, 32); stroke: rgb(0, 0, 0); stroke-width: 0.2px; stroke-linecap: butt;"></polygon><line x1="1" y1="0" x2="1" y2="1" style="fill: rgb(0, 0, 0); stroke: rgb(0, 0, 0); stroke-width: 0.075px; stroke-linecap: butt;"></line><line x1="2" y1="1" x2="1" y2="1" style="fill: rgb(0, 0, 0); stroke: rgb(0, 0, 0); stroke-width: 0.075px; stroke-linecap: butt;"></line><line x1="2" y1="1" x2="2" y2="2" style="fill: rgb(0, 0, 0); stroke: rgb(0, 0, 0); stroke-width: 0.075px; stroke-linecap: butt;"></line></g><g transform="matrix(1,0,0,1,0,0)"><polygon points="0,0 2,0 2,2 0,2" class="O" style="fill: rgb(223, 223, 32); stroke: rgb(0, 0, 0); stroke-width: 0.2px; stroke-linecap: butt;"></polygon><line x1="1" y1="0" x2="1" y2="2" style="fill: rgb(0, 0, 0); stroke: rgb(0, 0, 0); stroke-width: 0.075px; stroke-linecap: butt;"></line><line x1="0" y1="1" x2="2" y2="1" style="fill: rgb(0, 0, 0); stroke: rgb(0, 0, 0); stroke-width: 0.075px; stroke-linecap: butt;"></line></g><g transform="matrix(-1,1.2246467991473532e-16,-1.2246467991473532e-16,-1,5,2)"><polygon points="0,0 1,0 1,1 3,1 3,2 0,2" class="J" style="fill: rgb(32, 32, 223); stroke: rgb(0, 0, 0); stroke-width: 0.2px; stroke-linecap: butt;"></polygon><line x1="0" y1="1" x2="1" y2="1" style="fill: rgb(0, 0, 0); stroke: rgb(0, 0, 0); stroke-width: 0.075px; stroke-linecap: butt;"></line><line x1="1" y1="1" x2="1" y2="2" style="fill: rgb(0, 0, 0); stroke: rgb(0, 0, 0); stroke-width: 0.075px; stroke-linecap: butt;"></line><line x1="2" y1="1" x2="2" y2="2" style="fill: rgb(0, 0, 0); stroke: rgb(0, 0, 0); stroke-width: 0.075px; stroke-linecap: butt;"></line></g></g><g transform="matrix(1,0,0,1,17,0)"><rect width="11.8" height="0.5" x="-0.9" y="8" class="base" style="fill: none; stroke: none; stroke-width: 1px; stroke-linecap: butt;"></rect><g transform="matrix(1,0,0,1,4,6)"><polygon points="0,0 2,0 2,2 0,2" class="O" style="fill: rgb(223, 223, 32); stroke: rgb(0, 0, 0); stroke-width: 0.2px; stroke-linecap: butt;"></polygon><line x1="1" y1="0" x2="1" y2="2" style="fill: rgb(0, 0, 0); stroke: rgb(0, 0, 0); stroke-width: 0.075px; stroke-linecap: butt;"></line><line x1="0" y1="1" x2="2" y2="1" style="fill: rgb(0, 0, 0); stroke: rgb(0, 0, 0); stroke-width: 0.075px; stroke-linecap: butt;"></line></g><g transform="matrix(6.123233995736766e-17,1,-1,6.123233995736766e-17,6,3)"><polygon points="0,1 2,1 2,0 3,0 3,2 0,2" class="L" style="fill: rgb(223, 159, 32); stroke: rgb(0, 0, 0); stroke-width: 0.2px; stroke-linecap: butt;"></polygon><line x1="1" y1="1" x2="1" y2="2" style="fill: rgb(0, 0, 0); stroke: rgb(0, 0, 0); stroke-width: 0.075px; stroke-linecap: butt;"></line><line x1="2" y1="1" x2="2" y2="2" style="fill: rgb(0, 0, 0); stroke: rgb(0, 0, 0); stroke-width: 0.075px; stroke-linecap: butt;"></line><line x1="2" y1="1" x2="3" y2="1" style="fill: rgb(0, 0, 0); stroke: rgb(0, 0, 0); stroke-width: 0.075px; stroke-linecap: butt;"></line></g><g transform="matrix(6.123233995736766e-17,1,-1,6.123233995736766e-17,6,1)"><polygon points="4,1 4,0 0,0 0,1" class="I" style="fill: rgb(32, 223, 223); stroke: rgb(0, 0, 0); stroke-width: 0.2px; stroke-linecap: butt;"></polygon><line x1="1" y1="0" x2="1" y2="1" style="fill: rgb(0, 0, 0); stroke: rgb(0, 0, 0); stroke-width: 0.075px; stroke-linecap: butt;"></line><line x1="2" y1="0" x2="2" y2="1" style="fill: rgb(0, 0, 0); stroke: rgb(0, 0, 0); stroke-width: 0.075px; stroke-linecap: butt;"></line><line x1="3" y1="0" x2="3" y2="1" style="fill: rgb(0, 0, 0); stroke: rgb(0, 0, 0); stroke-width: 0.075px; stroke-linecap: butt;"></line></g><g transform="matrix(1,0,0,1,5,0)"><polygon points="0,0 2,0 2,1 3,1 3,2 1,2 1,1 0,1" class="Z" style="fill: rgb(223, 32, 32); stroke: rgb(0, 0, 0); stroke-width: 0.2px; stroke-linecap: butt;"></polygon><line x1="1" y1="0" x2="1" y2="1" style="fill: rgb(0, 0, 0); stroke: rgb(0, 0, 0); stroke-width: 0.075px; stroke-linecap: butt;"></line><line x1="2" y1="1" x2="1" y2="1" style="fill: rgb(0, 0, 0); stroke: rgb(0, 0, 0); stroke-width: 0.075px; stroke-linecap: butt;"></line><line x1="2" y1="1" x2="2" y2="2" style="fill: rgb(0, 0, 0); stroke: rgb(0, 0, 0); stroke-width: 0.075px; stroke-linecap: butt;"></line></g><g transform="matrix(-1,1.2246467991473532e-16,-1.2246467991473532e-16,-1,10,2)"><polygon points="1,0 2,0 2,1 3,1 3,2 0,2 0,1 1,1" class="T" style="fill: rgb(159, 32, 223); stroke: rgb(0, 0, 0); stroke-width: 0.2px; stroke-linecap: butt;"></polygon><line x1="1" y1="2" x2="1" y2="1" style="fill: rgb(0, 0, 0); stroke: rgb(0, 0, 0); stroke-width: 0.075px; stroke-linecap: butt;"></line><line x1="1" y1="1" x2="2" y2="1" style="fill: rgb(0, 0, 0); stroke: rgb(0, 0, 0); stroke-width: 0.075px; stroke-linecap: butt;"></line><line x1="2" y1="1" x2="2" y2="2" style="fill: rgb(0, 0, 0); stroke: rgb(0, 0, 0); stroke-width: 0.075px; stroke-linecap: butt;"></line></g><g transform="matrix(-1,1.2246467991473532e-16,-1.2246467991473532e-16,-1,5,3)"><polygon points="0,0 1,0 1,1 3,1 3,2 0,2" class="J" style="fill: rgb(32, 32, 223); stroke: rgb(0, 0, 0); stroke-width: 0.2px; stroke-linecap: butt;"></polygon><line x1="0" y1="1" x2="1" y2="1" style="fill: rgb(0, 0, 0); stroke: rgb(0, 0, 0); stroke-width: 0.075px; stroke-linecap: butt;"></line><line x1="1" y1="1" x2="1" y2="2" style="fill: rgb(0, 0, 0); stroke: rgb(0, 0, 0); stroke-width: 0.075px; stroke-linecap: butt;"></line><line x1="2" y1="1" x2="2" y2="2" style="fill: rgb(0, 0, 0); stroke: rgb(0, 0, 0); stroke-width: 0.075px; stroke-linecap: butt;"></line></g><g transform="matrix(1,0,0,1,0,0)"><polygon points="1,0 3,0 3,1 2,1 2,2 0,2 0,1 1,1" class="S" style="fill: rgb(32, 223, 32); stroke: rgb(0, 0, 0); stroke-width: 0.2px; stroke-linecap: butt;"></polygon><line x1="2" y1="0" x2="2" y2="1" style="fill: rgb(0, 0, 0); stroke: rgb(0, 0, 0); stroke-width: 0.075px; stroke-linecap: butt;"></line><line x1="2" y1="1" x2="1" y2="1" style="fill: rgb(0, 0, 0); stroke: rgb(0, 0, 0); stroke-width: 0.075px; stroke-linecap: butt;"></line><line x1="1" y1="1" x2="1" y2="2" style="fill: rgb(0, 0, 0); stroke: rgb(0, 0, 0); stroke-width: 0.075px; stroke-linecap: butt;"></line></g></g><g transform="matrix(1,0,0,1,28,0)"><rect width="6.8" height="0.5" x="-0.9" y="8" class="base" style="fill: none; stroke: none; stroke-width: 1px; stroke-linecap: butt;"></rect><g transform="matrix(6.123233995736766e-17,1,-1,6.123233995736766e-17,1,4)"><polygon points="4,1 4,0 0,0 0,1" class="I" style="fill: rgb(32, 223, 223); stroke: rgb(0, 0, 0); stroke-width: 0.2px; stroke-linecap: butt;"></polygon><line x1="1" y1="0" x2="1" y2="1" style="fill: rgb(0, 0, 0); stroke: rgb(0, 0, 0); stroke-width: 0.075px; stroke-linecap: butt;"></line><line x1="2" y1="0" x2="2" y2="1" style="fill: rgb(0, 0, 0); stroke: rgb(0, 0, 0); stroke-width: 0.075px; stroke-linecap: butt;"></line><line x1="3" y1="0" x2="3" y2="1" style="fill: rgb(0, 0, 0); stroke: rgb(0, 0, 0); stroke-width: 0.075px; stroke-linecap: butt;"></line></g><g transform="matrix(-1.8369701987210297e-16,-1,1,-1.8369701987210297e-16,2.220446049250313e-16,5)"><polygon points="1,0 2,0 2,1 3,1 3,2 0,2 0,1 1,1" class="T" style="fill: rgb(159, 32, 223); stroke: rgb(0, 0, 0); stroke-width: 0.2px; stroke-linecap: butt;"></polygon><line x1="1" y1="2" x2="1" y2="1" style="fill: rgb(0, 0, 0); stroke: rgb(0, 0, 0); stroke-width: 0.075px; stroke-linecap: butt;"></line><line x1="1" y1="1" x2="2" y2="1" style="fill: rgb(0, 0, 0); stroke: rgb(0, 0, 0); stroke-width: 0.075px; stroke-linecap: butt;"></line><line x1="2" y1="1" x2="2" y2="2" style="fill: rgb(0, 0, 0); stroke: rgb(0, 0, 0); stroke-width: 0.075px; stroke-linecap: butt;"></line></g><g transform="matrix(6.123233995736766e-17,1,-1,6.123233995736766e-17,2,0)"><polygon points="0,0 2,0 2,1 3,1 3,2 1,2 1,1 0,1" class="Z" style="fill: rgb(223, 32, 32); stroke: rgb(0, 0, 0); stroke-width: 0.2px; stroke-linecap: butt;"></polygon><line x1="1" y1="0" x2="1" y2="1" style="fill: rgb(0, 0, 0); stroke: rgb(0, 0, 0); stroke-width: 0.075px; stroke-linecap: butt;"></line><line x1="2" y1="1" x2="1" y2="1" style="fill: rgb(0, 0, 0); stroke: rgb(0, 0, 0); stroke-width: 0.075px; stroke-linecap: butt;"></line><line x1="2" y1="1" x2="2" y2="2" style="fill: rgb(0, 0, 0); stroke: rgb(0, 0, 0); stroke-width: 0.075px; stroke-linecap: butt;"></line></g><g transform="matrix(6.123233995736766e-17,1,-1,6.123233995736766e-17,5,5)"><polygon points="1,0 3,0 3,1 2,1 2,2 0,2 0,1 1,1" class="S" style="fill: rgb(32, 223, 32); stroke: rgb(0, 0, 0); stroke-width: 0.2px; stroke-linecap: butt;"></polygon><line x1="2" y1="0" x2="2" y2="1" style="fill: rgb(0, 0, 0); stroke: rgb(0, 0, 0); stroke-width: 0.075px; stroke-linecap: butt;"></line><line x1="2" y1="1" x2="1" y2="1" style="fill: rgb(0, 0, 0); stroke: rgb(0, 0, 0); stroke-width: 0.075px; stroke-linecap: butt;"></line><line x1="1" y1="1" x2="1" y2="2" style="fill: rgb(0, 0, 0); stroke: rgb(0, 0, 0); stroke-width: 0.075px; stroke-linecap: butt;"></line></g><g transform="matrix(-1,1.2246467991473532e-16,-1.2246467991473532e-16,-1,5,6)"><polygon points="0,1 2,1 2,0 3,0 3,2 0,2" class="L" style="fill: rgb(223, 159, 32); stroke: rgb(0, 0, 0); stroke-width: 0.2px; stroke-linecap: butt;"></polygon><line x1="1" y1="1" x2="1" y2="2" style="fill: rgb(0, 0, 0); stroke: rgb(0, 0, 0); stroke-width: 0.075px; stroke-linecap: butt;"></line><line x1="2" y1="1" x2="2" y2="2" style="fill: rgb(0, 0, 0); stroke: rgb(0, 0, 0); stroke-width: 0.075px; stroke-linecap: butt;"></line><line x1="2" y1="1" x2="3" y2="1" style="fill: rgb(0, 0, 0); stroke: rgb(0, 0, 0); stroke-width: 0.075px; stroke-linecap: butt;"></line></g><g transform="matrix(1,0,0,1,3,2)"><polygon points="0,0 2,0 2,2 0,2" class="O" style="fill: rgb(223, 223, 32); stroke: rgb(0, 0, 0); stroke-width: 0.2px; stroke-linecap: butt;"></polygon><line x1="1" y1="0" x2="1" y2="2" style="fill: rgb(0, 0, 0); stroke: rgb(0, 0, 0); stroke-width: 0.075px; stroke-linecap: butt;"></line><line x1="0" y1="1" x2="2" y2="1" style="fill: rgb(0, 0, 0); stroke: rgb(0, 0, 0); stroke-width: 0.075px; stroke-linecap: butt;"></line></g><g transform="matrix(-1,1.2246467991473532e-16,-1.2246467991473532e-16,-1,5,2)"><polygon points="0,0 1,0 1,1 3,1 3,2 0,2" class="J" style="fill: rgb(32, 32, 223); stroke: rgb(0, 0, 0); stroke-width: 0.2px; stroke-linecap: butt;"></polygon><line x1="0" y1="1" x2="1" y2="1" style="fill: rgb(0, 0, 0); stroke: rgb(0, 0, 0); stroke-width: 0.075px; stroke-linecap: butt;"></line><line x1="1" y1="1" x2="1" y2="2" style="fill: rgb(0, 0, 0); stroke: rgb(0, 0, 0); stroke-width: 0.075px; stroke-linecap: butt;"></line><line x1="2" y1="1" x2="2" y2="2" style="fill: rgb(0, 0, 0); stroke: rgb(0, 0, 0); stroke-width: 0.075px; stroke-linecap: butt;"></line></g></g><g transform="matrix(1,0,0,1,34,0)"><rect width="7.8" height="0.5" x="-0.9" y="8" class="base" style="fill: none; stroke: none; stroke-width: 1px; stroke-linecap: butt;"></rect><g transform="matrix(1,0,0,1,0,6)"><polygon points="1,0 2,0 2,1 3,1 3,2 0,2 0,1 1,1" class="T" style="fill: rgb(159, 32, 223); stroke: rgb(0, 0, 0); stroke-width: 0.2px; stroke-linecap: butt;"></polygon><line x1="1" y1="2" x2="1" y2="1" style="fill: rgb(0, 0, 0); stroke: rgb(0, 0, 0); stroke-width: 0.075px; stroke-linecap: butt;"></line><line x1="1" y1="1" x2="2" y2="1" style="fill: rgb(0, 0, 0); stroke: rgb(0, 0, 0); stroke-width: 0.075px; stroke-linecap: butt;"></line><line x1="2" y1="1" x2="2" y2="2" style="fill: rgb(0, 0, 0); stroke: rgb(0, 0, 0); stroke-width: 0.075px; stroke-linecap: butt;"></line></g><g transform="matrix(1,0,0,1,2,6)"><polygon points="0,0 2,0 2,1 3,1 3,2 1,2 1,1 0,1" class="Z" style="fill: rgb(223, 32, 32); stroke: rgb(0, 0, 0); stroke-width: 0.2px; stroke-linecap: butt;"></polygon><line x1="1" y1="0" x2="1" y2="1" style="fill: rgb(0, 0, 0); stroke: rgb(0, 0, 0); stroke-width: 0.075px; stroke-linecap: butt;"></line><line x1="2" y1="1" x2="1" y2="1" style="fill: rgb(0, 0, 0); stroke: rgb(0, 0, 0); stroke-width: 0.075px; stroke-linecap: butt;"></line><line x1="2" y1="1" x2="2" y2="2" style="fill: rgb(0, 0, 0); stroke: rgb(0, 0, 0); stroke-width: 0.075px; stroke-linecap: butt;"></line></g><g transform="matrix(6.123233995736766e-17,1,-1,6.123233995736766e-17,4,3)"><polygon points="0,1 2,1 2,0 3,0 3,2 0,2" class="L" style="fill: rgb(223, 159, 32); stroke: rgb(0, 0, 0); stroke-width: 0.2px; stroke-linecap: butt;"></polygon><line x1="1" y1="1" x2="1" y2="2" style="fill: rgb(0, 0, 0); stroke: rgb(0, 0, 0); stroke-width: 0.075px; stroke-linecap: butt;"></line><line x1="2" y1="1" x2="2" y2="2" style="fill: rgb(0, 0, 0); stroke: rgb(0, 0, 0); stroke-width: 0.075px; stroke-linecap: butt;"></line><line x1="2" y1="1" x2="3" y2="1" style="fill: rgb(0, 0, 0); stroke: rgb(0, 0, 0); stroke-width: 0.075px; stroke-linecap: butt;"></line></g><g transform="matrix(6.123233995736766e-17,1,-1,6.123233995736766e-17,5,2)"><polygon points="0,0 1,0 1,1 3,1 3,2 0,2" class="J" style="fill: rgb(32, 32, 223); stroke: rgb(0, 0, 0); stroke-width: 0.2px; stroke-linecap: butt;"></polygon><line x1="0" y1="1" x2="1" y2="1" style="fill: rgb(0, 0, 0); stroke: rgb(0, 0, 0); stroke-width: 0.075px; stroke-linecap: butt;"></line><line x1="1" y1="1" x2="1" y2="2" style="fill: rgb(0, 0, 0); stroke: rgb(0, 0, 0); stroke-width: 0.075px; stroke-linecap: butt;"></line><line x1="2" y1="1" x2="2" y2="2" style="fill: rgb(0, 0, 0); stroke: rgb(0, 0, 0); stroke-width: 0.075px; stroke-linecap: butt;"></line></g><g transform="matrix(1,0,0,1,3,0)"><polygon points="1,0 3,0 3,1 2,1 2,2 0,2 0,1 1,1" class="S" style="fill: rgb(32, 223, 32); stroke: rgb(0, 0, 0); stroke-width: 0.2px; stroke-linecap: butt;"></polygon><line x1="2" y1="0" x2="2" y2="1" style="fill: rgb(0, 0, 0); stroke: rgb(0, 0, 0); stroke-width: 0.075px; stroke-linecap: butt;"></line><line x1="2" y1="1" x2="1" y2="1" style="fill: rgb(0, 0, 0); stroke: rgb(0, 0, 0); stroke-width: 0.075px; stroke-linecap: butt;"></line><line x1="1" y1="1" x2="1" y2="2" style="fill: rgb(0, 0, 0); stroke: rgb(0, 0, 0); stroke-width: 0.075px; stroke-linecap: butt;"></line></g><g transform="matrix(1,0,0,1,1,1)"><polygon points="0,0 2,0 2,2 0,2" class="O" style="fill: rgb(223, 223, 32); stroke: rgb(0, 0, 0); stroke-width: 0.2px; stroke-linecap: butt;"></polygon><line x1="1" y1="0" x2="1" y2="2" style="fill: rgb(0, 0, 0); stroke: rgb(0, 0, 0); stroke-width: 0.075px; stroke-linecap: butt;"></line><line x1="0" y1="1" x2="2" y2="1" style="fill: rgb(0, 0, 0); stroke: rgb(0, 0, 0); stroke-width: 0.075px; stroke-linecap: butt;"></line></g><g transform="matrix(1,0,0,1,0,0)"><polygon points="4,1 4,0 0,0 0,1" class="I" style="fill: rgb(32, 223, 223); stroke: rgb(0, 0, 0); stroke-width: 0.2px; stroke-linecap: butt;"></polygon><line x1="1" y1="0" x2="1" y2="1" style="fill: rgb(0, 0, 0); stroke: rgb(0, 0, 0); stroke-width: 0.075px; stroke-linecap: butt;"></line><line x1="2" y1="0" x2="2" y2="1" style="fill: rgb(0, 0, 0); stroke: rgb(0, 0, 0); stroke-width: 0.075px; stroke-linecap: butt;"></line><line x1="3" y1="0" x2="3" y2="1" style="fill: rgb(0, 0, 0); stroke: rgb(0, 0, 0); stroke-width: 0.075px; stroke-linecap: butt;"></line></g></g><g transform="matrix(1,0,0,1,41,0)"><rect width="6.8" height="0.5" x="-0.9" y="8" class="base" style="fill: none; stroke: none; stroke-width: 1px; stroke-linecap: butt;"></rect><g transform="matrix(1,0,0,1,2,6)"><polygon points="0,1 2,1 2,0 3,0 3,2 0,2" class="L" style="fill: rgb(223, 159, 32); stroke: rgb(0, 0, 0); stroke-width: 0.2px; stroke-linecap: butt;"></polygon><line x1="1" y1="1" x2="1" y2="2" style="fill: rgb(0, 0, 0); stroke: rgb(0, 0, 0); stroke-width: 0.075px; stroke-linecap: butt;"></line><line x1="2" y1="1" x2="2" y2="2" style="fill: rgb(0, 0, 0); stroke: rgb(0, 0, 0); stroke-width: 0.075px; stroke-linecap: butt;"></line><line x1="2" y1="1" x2="3" y2="1" style="fill: rgb(0, 0, 0); stroke: rgb(0, 0, 0); stroke-width: 0.075px; stroke-linecap: butt;"></line></g><g transform="matrix(6.123233995736766e-17,1,-1,6.123233995736766e-17,5,4)"><polygon points="0,0 2,0 2,1 3,1 3,2 1,2 1,1 0,1" class="Z" style="fill: rgb(223, 32, 32); stroke: rgb(0, 0, 0); stroke-width: 0.2px; stroke-linecap: butt;"></polygon><line x1="1" y1="0" x2="1" y2="1" style="fill: rgb(0, 0, 0); stroke: rgb(0, 0, 0); stroke-width: 0.075px; stroke-linecap: butt;"></line><line x1="2" y1="1" x2="1" y2="1" style="fill: rgb(0, 0, 0); stroke: rgb(0, 0, 0); stroke-width: 0.075px; stroke-linecap: butt;"></line><line x1="2" y1="1" x2="2" y2="2" style="fill: rgb(0, 0, 0); stroke: rgb(0, 0, 0); stroke-width: 0.075px; stroke-linecap: butt;"></line></g><g transform="matrix(-1,1.2246467991473532e-16,-1.2246467991473532e-16,-1,3,8)"><polygon points="1,0 2,0 2,1 3,1 3,2 0,2 0,1 1,1" class="T" style="fill: rgb(159, 32, 223); stroke: rgb(0, 0, 0); stroke-width: 0.2px; stroke-linecap: butt;"></polygon><line x1="1" y1="2" x2="1" y2="1" style="fill: rgb(0, 0, 0); stroke: rgb(0, 0, 0); stroke-width: 0.075px; stroke-linecap: butt;"></line><line x1="1" y1="1" x2="2" y2="1" style="fill: rgb(0, 0, 0); stroke: rgb(0, 0, 0); stroke-width: 0.075px; stroke-linecap: butt;"></line><line x1="2" y1="1" x2="2" y2="2" style="fill: rgb(0, 0, 0); stroke: rgb(0, 0, 0); stroke-width: 0.075px; stroke-linecap: butt;"></line></g><g transform="matrix(1,0,0,1,2,3)"><polygon points="1,0 3,0 3,1 2,1 2,2 0,2 0,1 1,1" class="S" style="fill: rgb(32, 223, 32); stroke: rgb(0, 0, 0); stroke-width: 0.2px; stroke-linecap: butt;"></polygon><line x1="2" y1="0" x2="2" y2="1" style="fill: rgb(0, 0, 0); stroke: rgb(0, 0, 0); stroke-width: 0.075px; stroke-linecap: butt;"></line><line x1="2" y1="1" x2="1" y2="1" style="fill: rgb(0, 0, 0); stroke: rgb(0, 0, 0); stroke-width: 0.075px; stroke-linecap: butt;"></line><line x1="1" y1="1" x2="1" y2="2" style="fill: rgb(0, 0, 0); stroke: rgb(0, 0, 0); stroke-width: 0.075px; stroke-linecap: butt;"></line></g><g transform="matrix(-1.8369701987210297e-16,-1,1,-1.8369701987210297e-16,1.0000000000000002,4)"><polygon points="0,0 1,0 1,1 3,1 3,2 0,2" class="J" style="fill: rgb(32, 32, 223); stroke: rgb(0, 0, 0); stroke-width: 0.2px; stroke-linecap: butt;"></polygon><line x1="0" y1="1" x2="1" y2="1" style="fill: rgb(0, 0, 0); stroke: rgb(0, 0, 0); stroke-width: 0.075px; stroke-linecap: butt;"></line><line x1="1" y1="1" x2="1" y2="2" style="fill: rgb(0, 0, 0); stroke: rgb(0, 0, 0); stroke-width: 0.075px; stroke-linecap: butt;"></line><line x1="2" y1="1" x2="2" y2="2" style="fill: rgb(0, 0, 0); stroke: rgb(0, 0, 0); stroke-width: 0.075px; stroke-linecap: butt;"></line></g><g transform="matrix(1,0,0,1,0,1)"><polygon points="0,0 2,0 2,2 0,2" class="O" style="fill: rgb(223, 223, 32); stroke: rgb(0, 0, 0); stroke-width: 0.2px; stroke-linecap: butt;"></polygon><line x1="1" y1="0" x2="1" y2="2" style="fill: rgb(0, 0, 0); stroke: rgb(0, 0, 0); stroke-width: 0.075px; stroke-linecap: butt;"></line><line x1="0" y1="1" x2="2" y2="1" style="fill: rgb(0, 0, 0); stroke: rgb(0, 0, 0); stroke-width: 0.075px; stroke-linecap: butt;"></line></g><g transform="matrix(1,0,0,1,1,0)"><polygon points="4,1 4,0 0,0 0,1" class="I" style="fill: rgb(32, 223, 223); stroke: rgb(0, 0, 0); stroke-width: 0.2px; stroke-linecap: butt;"></polygon><line x1="1" y1="0" x2="1" y2="1" style="fill: rgb(0, 0, 0); stroke: rgb(0, 0, 0); stroke-width: 0.075px; stroke-linecap: butt;"></line><line x1="2" y1="0" x2="2" y2="1" style="fill: rgb(0, 0, 0); stroke: rgb(0, 0, 0); stroke-width: 0.075px; stroke-linecap: butt;"></line><line x1="3" y1="0" x2="3" y2="1" style="fill: rgb(0, 0, 0); stroke: rgb(0, 0, 0); stroke-width: 0.075px; stroke-linecap: butt;"></line></g></g></svg>